# xmcd
#
# Track frame offsets:
#	150
#	11891
#	28835
#	49317
#	66735
#	85049
#	100913
#	114547
#	135459
#	152764
#	171732
#
# Disc length: 2502 seconds
#
# Revision: 1
# Processed by: cddbd v1.5.2PL0 Copyright (c) Steve Scherf et al.
# Submitted via: audiograbber 1.83.01
#
DISCID=9d09c40b
DTITLE=Tandy - The Bloodroot Transcritions
DYEAR=2001
DGENRE=Alt. Country
TTITLE0=New Candy Necklace
TTITLE1=Becky California
TTITLE2=Fidelis
TTITLE3=The Truth Is Better Than A Lie
TTITLE4=Louis Green
TTITLE5=True Fine Love
TTITLE6=The Stations
TTITLE7=That's My Candle
TTITLE8=Won't Break Down
TTITLE9=Might Shine Again
TTITLE10=New Candy Necklace (Reprise)
EXTD=
EXTT0=
EXTT1=
EXTT2=
EXTT3=
EXTT4=
EXTT5=
EXTT6=
EXTT7=
EXTT8=
EXTT9=
EXTT10=
PLAYORDER=
